<svg xmlns="http://www.w3.org/2000/svg" viewBox="0 0 24 24" version="1.1">
  <path d="M15.792 1.024032C14.93976 1.108656 14.212992 1.309152 13.653984000000001 1.6138800000000002C12.51936 2.23236 11.812704 3.3236160000000003 11.582952 4.812C11.532552 5.138472 11.48904 5.74284 11.499456 5.97168C11.509511999999999 6.1926 11.575224 6.316464 11.74044 6.425784C11.865288 6.508416 12.05724 6.5214240000000006 12.570599999999999 6.482016C13.433784 6.4157519999999995 14.041944 6.269880000000001 14.636136000000002 5.986536C15.939912000000001 5.364864 16.684032000000002 4.263888000000001 16.933632 2.5872960000000003C16.953888000000003 2.451288 16.976784 2.123784 16.984512 1.85952C16.99776 1.407696 16.995672000000003 1.373328 16.949640000000002 1.28352C16.893576 1.174176 16.821336000000002 1.102464 16.711199999999998 1.046808C16.648968 1.015368 16.562328 1.00872 16.2552 1.0118399999999999C16.04664 1.013952 15.838199999999999 1.019424 15.792 1.024032M15.816 2.032512C14.750136000000001 2.144496 14.00748 2.45352 13.456992 3.0140160000000003C12.954312000000002 3.525888 12.618432 4.353648 12.538608 5.277384L12.521208 5.478791999999999 12.722616 5.461392C13.439088 5.399472 14.163096000000001 5.160408 14.64684 4.825992C14.975232 4.599 15.322224000000002 4.205592 15.511104000000001 3.846168C15.709512 3.4686000000000003 15.87384 2.9212320000000003 15.934512 2.436C15.949368000000002 2.3172 15.967224000000002 2.174112 15.974231999999999 2.118C15.988104000000002 2.0066159999999997 16.0002 2.013144 15.816 2.032512M8.076 6.518976C7.420176 6.618936 6.991248000000001 6.753144 6.432 7.033344C5.844984 7.327464 5.40984 7.645295999999999 4.90668 8.147424C3.790704 9.261144 3.164496 10.659696 3.024336 12.351312000000002C2.769336 15.42924 4.306704 19.912128000000003 6.299088 21.900288C6.880704000000001 22.480680000000003 7.433472 22.816776 8.020896 22.947167999999998C8.214 22.990032 8.297232000000001 22.995 8.64 22.984032C9.280032 22.96356 9.567792 22.881024 10.428 22.471176C11.272008 22.069056 11.577024 21.988104 12.142536000000002 22.016064C12.629856 22.040184 12.873287999999999 22.106304 13.836 22.47612C14.469816 22.7196 14.696591999999999 22.797 14.99472 22.87164C15.483384 22.993992 16.059432 23.026728000000002 16.44336 22.953984000000002C17.64468 22.726368 18.866256 21.477936 19.881768 19.44C20.263944000000002 18.673056 20.48076 18.145224000000002 20.749608000000002 17.327280000000002C20.893152 16.890552 20.908824 16.758 20.834088 16.61304C20.762328 16.473864 20.702136000000003 16.4238 20.464944 16.305984000000002C19.540488 15.846816 18.666168 14.658719999999999 18.452952 13.572000000000001C18.410328 13.354752 18.410016 12.429696 18.452472 12.132456000000001C18.630432000000003 10.886424 19.114152 9.941808 19.851384 9.400608C20.06664 9.242592 20.136 9.128207999999999 20.136 8.93124C20.136 8.776248 20.098536 8.701296 19.90644 8.472C19.043112 7.441368000000001 17.673648 6.667656000000001 16.463304 6.5267040000000005C16.137408 6.48876 15.502824 6.511463999999999 15.168000000000001 6.573072C14.630376000000002 6.671976000000001 14.303568 6.7692000000000005 13.376015999999998 7.106159999999999C12.41628 7.454856000000001 12.353040000000002 7.4720640000000005 12.024000000000001 7.474200000000001C11.693448 7.47636 11.630735999999999 7.45776 10.956 7.157736C9.797472 6.6426 9.387216 6.530712 8.604000000000001 6.51636C8.353200000000001 6.511776 8.115599999999999 6.512952 8.076 6.518976M7.954848 7.558104C6.763007999999999 7.804968 5.670984 8.574816 4.939248 9.684000000000001C4.11144 10.93884 3.8443440000000004 12.462888000000001 4.106448 14.436C4.346904 16.246224 5.057952 18.31068 5.954424 19.801368C6.659400000000001 20.973624 7.4831520000000005 21.77124 8.172 21.9486C8.338344 21.991416 8.685216 21.996864 8.91444 21.96024C9.188616 21.916439999999998 9.450216000000001 21.81888 10.049256 21.537048C11.004024 21.087864 11.279136 21.014616 12.012 21.014496C12.443760000000001 21.014424 12.523128000000002 21.021024 12.801648000000002 21.080088C13.157015999999999 21.155448 13.565136 21.287736000000002 14.148 21.516528C15.106032 21.892560000000003 15.461112 21.984384 15.96288 21.985872C16.177416 21.986496000000002 16.249176 21.976224000000002 16.41612 21.921048C17.23716 21.649704 18.213744 20.54376 18.977856000000003 19.02C19.206768 18.563496 19.649112 17.492231999999998 19.761336 17.122512C19.77336 17.082936 19.757664000000002 17.062535999999998 19.682832 17.020488C19.537128000000003 16.938576 19.18548 16.650936 18.949944000000002 16.420992C18.255288 15.742752 17.744016 14.874623999999999 17.521056 13.994784C17.345952 13.303752 17.363952 12.308471999999998 17.568624 11.364C17.761992 10.471728 18.221256 9.577752 18.783768000000002 8.998632L18.91332 8.865288 18.738648 8.710175999999999C18.308040000000002 8.32776 18.041976000000002 8.145936 17.580000000000002 7.918368000000001C16.95864 7.612296 16.598184 7.523928000000001 15.972 7.524168C15.279432000000002 7.524408 14.920368 7.6127519999999995 13.49424 8.13372C12.793632 8.389656 12.475632 8.471856 12.118848 8.48916C11.640552000000001 8.512368 11.366592 8.440104 10.518408 8.066928C9.488280000000001 7.613688000000001 9.214056 7.536648 8.58 7.5223439999999995C8.247984 7.514832 8.13156 7.521504 7.954848 7.558104" stroke="none" fill="currentColor" fill-rule="evenodd" stroke-width="0.024"></path>
</svg>