<svg xmlns="http://www.w3.org/2000/svg" viewBox="0 0 24 24" version="1.1">
  <path d="M11.84604 2.021808C11.724432 2.053944 11.55588 2.221272 11.521944000000001 2.343576C11.507280000000002 2.396376 11.496216 2.66496 11.496144 2.97L11.496 3.504 10.943232 3.504C10.498584 3.504 10.373064000000001 3.511272 10.301568000000001 3.5411520000000003C10.112832000000001 3.619992 10.008000000000001 3.782952 10.008000000000001 3.997416C10.008000000000001 4.161264 10.055159999999999 4.267968 10.175664 4.376856C10.302384 4.491336 10.429224 4.5120000000000005 11.005176 4.5120000000000005L11.496 4.5120000000000005 11.496528 5.058C11.496984 5.5381920000000004 11.502408 5.615568 11.541504 5.7C11.725128000000002 6.096648 12.274872 6.096648 12.458496000000002 5.7C12.497592 5.615568 12.503015999999999 5.5381920000000004 12.503471999999999 5.058L12.504 4.5120000000000005 12.994824000000001 4.5120000000000005C13.570775999999999 4.5120000000000005 13.697616000000002 4.491336 13.824336 4.376856C13.94484 4.267968 13.992 4.161264 13.992 3.997416C13.992 3.782952 13.887167999999999 3.619992 13.698432 3.5411520000000003C13.626936 3.511272 13.501415999999999 3.504 13.056768000000002 3.504L12.504 3.504 12.503856 2.97C12.503784 2.66496 12.49272 2.396376 12.478056 2.343576C12.44136 2.2113359999999997 12.27708 2.055024 12.138024 2.020032C12.009456 1.987656 11.97444 1.987848 11.84604 2.021808M6.727824000000001 2.5233600000000003C6.530640000000001 2.557824 6.378456 2.680416 6.270504000000001 2.891784C6.192696 3.04416 6.2288879999999995 2.916048 5.783928 4.613376C5.573808 5.414928000000001 5.383896 6.105504 5.361936 6.147984C5.29824 6.271152 5.086272 6.480072 4.960176000000001 6.54396C4.896408 6.576288 4.1943839999999994 6.773856000000001 3.400104 6.98304C2.605848 7.192200000000001 1.9074 7.382544 1.848 7.405992000000001C1.502016 7.542599999999999 1.3455599999999999 7.739159999999999 1.344528 8.038416000000002C1.3436160000000001 8.307792000000001 1.468632 8.481311999999999 1.7628720000000002 8.618976C1.8471600000000001 8.658432 2.52684 8.848992 3.384 9.073512C4.333992 9.322344 4.900824 9.482256 4.974576 9.522192C5.116944 9.599304 5.281368 9.772512 5.358672 9.926808000000001C5.390976 9.991272 5.538528 10.507848000000001 5.68656 11.074752C5.976408 12.184728 5.996040000000001 12.23556 6.173088 12.335664C6.2220960000000005 12.363384 6.3162 12.392448 6.382224 12.400272000000001C6.482232000000001 12.412104000000001 6.524592 12.403560000000002 6.636024 12.349032000000001C6.7611360000000005 12.287832 6.784295999999999 12.261672 6.994776000000001 11.943792C7.269648 11.528736 7.463184 11.299056 7.756152 11.040216000000001C7.879272 10.931472000000001 8.003592000000001 10.808615999999999 8.03244 10.76724C8.061288 10.725864 8.1246 10.540799999999999 8.173152 10.356C8.221704 10.1712 8.286719999999999 9.970056 8.317584 9.909024C8.390784 9.764352 8.56764 9.589152 8.716752 9.5136C8.78472 9.479136 9.462192 9.289512 10.302288 9.069768C11.218295999999999 8.830176 11.824536 8.659656 11.916696 8.615664C12.093672000000002 8.531208 12.273192 8.349264000000002 12.309864 8.217168000000001C12.407976000000001 7.863816 12.233712 7.564128000000001 11.84016 7.409376C11.785272 7.3877999999999995 11.099472 7.201848 10.31616 6.996143999999999C9.532872 6.790464 8.837304 6.600552 8.770488 6.574128000000001C8.603232 6.507984 8.423592000000001 6.343704000000001 8.333352 6.174408C8.277000000000001 6.068664 8.160456 5.660184 7.872912 4.560504C7.496112000000001 3.1194720000000005 7.428984 2.90448 7.305096000000001 2.742072C7.1739120000000005 2.570064 6.9487440000000005 2.484768 6.727824000000001 2.5233600000000003M15.741719999999999 4.31904C15.615048 4.342824 15.501768000000002 4.417344 15.423863999999998 4.528176C15.367752 4.608048 15.350904 4.665288 15.332448 4.839048C15.238439999999999 5.72436 14.452488 7.848048 13.443024 9.944376C13.324464 10.190568 13.220040000000001 10.392 13.210992 10.392C13.201920000000001 10.392 13.13364 10.339536 13.059263999999999 10.275432C12.114576 9.461328 10.935191999999999 9.357072 9.732 9.981311999999999C8.957880000000001 10.382952 8.24736 11.013624 7.518479999999999 11.946072C7.056624 12.536928 6.420672000000001 13.558464 6.033816 14.330928C5.6646719999999995 15.067992 5.438568 15.7692 5.280168000000001 16.668C5.181696 17.226792 5.154384 18.107616 5.220024 18.608256C5.364648 19.711608000000002 5.833272 20.490768000000003 6.57024 20.85324C6.89424 21.0126 7.0134240000000005 21.036312000000002 7.476 21.0336C7.849272 21.031392 7.907496 21.024984000000003 8.16 20.958408000000002C8.3118 20.918376000000002 8.538599999999999 20.84508 8.664 20.79552C9.053735999999999 20.641488 9.672096 20.317992 9.976032 20.109144L10.076039999999999 20.040408000000003 10.176024 20.226216C10.501007999999999 20.830152000000002 10.966752 21.146184 11.639280000000001 21.21912C11.951928 21.253032 12.236304 21.226296 12.559632 21.1326C13.911096 20.740944000000002 16.113216 18.852768 16.856832 17.448C17.239224 16.725624 17.227992 16.123824000000003 16.825295999999998 15.760032C16.507632 15.473016 16.137048 15.435648000000002 15.70236 15.646728C15.385608000000001 15.800544 15.140903999999999 16.00404 14.58 16.579992C13.579416 17.607432 13.211592 17.968776 13.073640000000001 18.059904C12.997536 18.11016 12.928104000000001 18.14412 12.919344 18.13536C12.891648000000002 18.10764 12.957144 17.704776 13.03152 17.445552C13.228944 16.7574 13.686552 15.750888000000002 14.399808 14.436C15.113616 13.120104000000001 16.205184 10.810080000000001 16.76652 9.427488C17.446991999999998 7.751472000000001 17.680896 6.856032 17.616504 6.173400000000001C17.53872 5.348568 17.136216 4.742952 16.469976000000003 4.448304C16.246176 4.349328 15.903984000000001 4.288608 15.741719999999999 4.31904M6.604463999999999 5.4534C6.48348 5.919024 6.365424 6.348599999999999 6.342096000000001 6.408C6.1584 6.87588 5.787984 7.271304000000001 5.339088 7.478712C5.225232 7.53132 4.8417840000000005 7.6450320000000005 4.289832 7.789896000000001C3.811416 7.915464 3.410256 8.020944 3.3983520000000005 8.024304C3.386448 8.027664 3.7590480000000004 8.130288 4.226352 8.252352C4.693656 8.374392 5.149056000000001 8.50176 5.238336 8.53536C5.549928 8.652624000000001 5.8785359999999995 8.909640000000001 6.099768 9.209112000000001C6.263568000000001 9.430824000000001 6.369528 9.69612 6.507096000000001 10.229016L6.635400000000001 10.726008 6.899568 10.469016L7.163735999999999 10.212 7.238735999999999 9.940416C7.415328 9.300912 7.7564400000000004 8.86812 8.292336 8.603544C8.468832 8.516424 8.669352 8.454888 9.381359999999999 8.269344C9.86136 8.14428 10.257984 8.038008 10.262784 8.033208C10.267584 8.028408 9.885528 7.923336000000001 9.41376 7.799735999999999C8.941992 7.6761360000000005 8.501232 7.552728 8.43432 7.525512C7.948055999999999 7.327704000000001 7.545528 6.9294720000000005 7.350792 6.453552000000001C7.310832 6.355896 7.183152 5.9088 7.067088 5.46C6.9510000000000005 5.0112000000000005 6.848928000000001 4.635624 6.840216000000001 4.6254C6.831528 4.615176 6.725424 4.987776 6.604463999999999 5.4534M16.240008 5.512008C16.231199999999998 5.520792 16.224 5.5459439999999995 16.224 5.567904C16.224 5.646096 16.0056 6.366912 15.836904 6.845496C15.562944 7.622616 15.123240000000001 8.707968 14.731032 9.575088C14.380392 10.35036 13.805544 11.4738 13.66572 11.657136C13.515024 11.854704000000002 13.205448 11.8992 12.992424 11.753928C12.950856000000002 11.725584 12.859632 11.615447999999999 12.789696000000001 11.5092C12.719784 11.402928000000001 12.564383999999999 11.21772 12.444384 11.097576C12.261168 10.914168 12.189792 10.861176 11.999088 10.767048C11.874191999999999 10.705392 11.6964 10.639175999999999 11.604000000000001 10.61988C10.391688 10.36692 8.875008 11.508672 7.554912000000001 13.668000000000001C6.793776 14.913024 6.469296 15.715944 6.273143999999999 16.83972C6.19872 17.266008 6.168552000000001 18.062376 6.21264 18.436272C6.279408 19.002264 6.469488 19.481952000000003 6.7299359999999995 19.741656C6.932976000000001 19.94412 7.0948080000000004 20.01876 7.364016 20.03412C8.001984 20.07048 8.902512 19.676016 9.945912 18.903144C10.205208 18.711072 10.209504 18.709032 10.371264 18.699888C10.514496 18.6918 10.548143999999999 18.698567999999998 10.643880000000001 18.754656C10.793496 18.842328 10.869624 18.965592 10.898016 19.166112C10.96416 19.633176 11.099112000000002 19.911672 11.338799999999999 20.075712000000003C11.790312 20.384736 12.443712000000001 20.229696 13.392 19.588536C14.313792000000001 18.96528 15.341807999999999 17.970768 15.809040000000001 17.250336C15.924648000000001 17.072064 16.092744 16.731024 16.118472 16.62252L16.13496 16.553016 16.02948 16.61052C15.926712000000002 16.666512 15.378623999999999 17.20188 14.434944000000002 18.168048C13.84236 18.774744 13.534032 19.011432000000003 13.179 19.132152C12.965304 19.204824000000002 12.683256000000002 19.205592 12.522792 19.133952C12.237696 19.006656 12.049871999999999 18.797712 11.960112 18.508032C11.899296 18.31176 11.905008 17.849111999999998 11.972159999999999 17.530512C12.140496 16.731936 12.633696 15.582816 13.467336000000001 14.046984000000002C14.35668 12.408479999999999 15.586584 9.753143999999999 16.140336 8.276064C16.477032 7.377960000000001 16.616808 6.837960000000001 16.617624 6.432C16.618368 6.062688 16.538472 5.79288 16.367064 5.586C16.292136000000003 5.4955680000000005 16.269576 5.482416 16.240008 5.512008M19.442064000000002 11.115C19.29048 11.143392 19.163928 11.236896 19.080672 11.382024C18.995568 11.530416 18.99804 11.522208 18.73236 12.539064C18.618672 12.974136000000001 18.504768000000002 13.363920000000002 18.479232 13.405224C18.45372 13.446552 18.392136 13.49784 18.342408000000002 13.519248000000001C18.29268 13.540655999999998 17.876304 13.656312000000002 17.417136000000003 13.776312C16.957968 13.896287999999998 16.53564 14.014439999999999 16.478664 14.038848C16.235808 14.142959999999999 16.105056 14.332344 16.105056 14.58C16.105056 14.827344000000002 16.235832000000002 15.017040000000001 16.477848 15.120792000000002C16.534368 15.145032 16.975848 15.26808 17.458872 15.394248000000001C17.94192 15.520415999999999 18.36444 15.641520000000002 18.3978 15.663383999999999C18.431160000000002 15.685248000000001 18.473952 15.733104 18.492912 15.769752C18.511872 15.8064 18.619944 16.190904 18.733104 16.6242C19.020912 17.726352 19.026 17.741376000000002 19.161432 17.887128C19.365072 18.106296 19.791240000000002 18.09996 19.980576 17.874936C20.0946 17.739432 20.133264 17.624976 20.365296 16.736712C20.492376 16.250136 20.614296 15.820728 20.636184 15.78252C20.658096 15.744288 20.703 15.692904 20.736 15.668304000000001C20.770344 15.642719999999999 21.170616000000003 15.525744 21.672 15.394800000000002C22.1538 15.268944000000001 22.605168 15.138408000000002 22.675056 15.104688C23.02236 14.937240000000001 23.137872 14.563439999999998 22.935624 14.261376000000002C22.815672 14.082168 22.672464 14.025816 21.672 13.764240000000001C21.184776 13.636848 20.76936 13.515623999999999 20.736 13.491096C20.703 13.466832000000002 20.658024 13.415712000000001 20.636088 13.37748C20.614128 13.339272 20.492688 12.910824000000002 20.366232 12.425351999999998C20.239776 11.939904 20.114592 11.500104 20.088024 11.448024C19.953096000000002 11.183568000000001 19.719336000000002 11.063064 19.442064000000002 11.115M10.987632 11.470176C10.332 11.67984 9.591168 12.466175999999999 8.79768 13.79472C8.353392 14.538576 7.892952 15.760512 7.692408 16.728C7.609344 17.128704000000003 7.586304 17.669664 7.641311999999999 17.928C7.781016 18.584064 8.294088 18.910248 8.906928 18.732576C9.488088 18.564096 10.263576 17.704224 11.039376 16.36812C11.585856000000001 15.426936 12.111744 14.109 12.2796 13.26C12.339648000000002 12.956232 12.339552000000001 12.401304 12.279432 12.20472C12.218615999999999 12.005976 12.157152 11.8932 12.040848 11.767007999999999C11.761032 11.463456 11.361144 11.350752 10.987632 11.470176M11.161824000000001 12.486336C11.027352 12.554304 10.699296 12.862344000000002 10.474872 13.131383999999999C10.147704000000001 13.523591999999999 9.76164 14.107199999999999 9.503232 14.600232C9.165432 15.244728 8.770871999999999 16.388351999999998 8.650656000000001 17.07144C8.615928 17.268743999999998 8.602896000000001 17.714904 8.631048 17.743032C8.68848 17.800488 9.141648 17.369904 9.439728 16.974672C9.911928000000001 16.348512 10.37232 15.557352 10.6866 14.832C11.075520000000001 13.934327999999999 11.287656 13.258104000000001 11.319768 12.813576C11.334432 12.610439999999999 11.318088 12.431688 11.28492 12.432336000000001C11.275608 12.432528000000001 11.220216 12.456816 11.161824000000001 12.486336M19.552224000000002 13.392C19.545096 13.411800000000001 19.521384 13.4928 19.49952 13.572000000000001C19.438152 13.794167999999999 19.322976 13.989047999999999 19.151952 14.16C18.971136 14.340768 18.813096 14.432256 18.528336 14.521008L18.324672 14.584488 18.456336 14.615496000000002C18.652608 14.661696000000001 18.763104000000002 14.709024 18.936 14.820936C19.22172 15.005856000000001 19.395456 15.243863999999999 19.503936 15.598991999999999L19.565952000000003 15.80196 19.618416 15.622992C19.708776 15.314832000000001 19.850208 15.093936 20.07972 14.902415999999999C20.2188 14.786376 20.481984 14.656775999999999 20.663688 14.614872L20.7954 14.584488 20.566560000000003 14.510232C20.31372 14.428199999999999 20.153424 14.335344000000001 19.995312000000002 14.179295999999999C19.80564 13.99212 19.685424 13.785816 19.610952 13.519704C19.585752 13.429656 19.559328 13.3722 19.552224000000002 13.392" stroke="none" fill="currentColor" fill-rule="evenodd" stroke-width="0.024"></path>
</svg>