<svg xmlns="http://www.w3.org/2000/svg" viewBox="0 0 24 24" version="1.1">
  <path d="M13.272 1.055472C13.225800000000001 1.080408 12.874872 1.414728 12.492144 1.798416L11.796312 2.496 10.824144 2.4964079999999997C9.742632 2.496888 9.644688 2.506968 9.348696 2.648232C9.036792 2.7970800000000002 8.786856 3.0506640000000003 8.637504 3.369792C8.491463999999999 3.6818880000000003 8.496864 3.533688 8.496408 7.237583999999999C8.496144 9.485592 8.504424 10.671024 8.521056 10.765584C8.6148 11.298096000000001 9.029615999999999 11.774568 9.538992 11.934840000000001L9.708 11.988 15 11.988L20.292 11.988 20.461008 11.934840000000001C20.89488 11.798328 21.264504 11.431656 21.424464 10.979088L21.492 10.788 21.49848 7.32672C21.505584000000002 3.5257440000000004 21.511176 3.687528 21.36156 3.3677760000000005C21.212880000000002 3.050064 20.949984 2.787144 20.632368 2.638512C20.352263999999998 2.507448 20.243928 2.496864 19.175856 2.4964079999999997L18.203688 2.496 17.507856 1.7983680000000002C17.125128 1.4146560000000001 16.77192 1.079856 16.72296 1.054368C16.637448 1.009848 16.569 1.008048 14.994959999999999 1.009056C13.434768000000002 1.010064 13.351968 1.012296 13.272 1.055472M2.84604 2.021808C2.724432 2.053944 2.55588 2.221272 2.521944 2.343576C2.504112 2.407728 2.4963840000000004 3.8381760000000003 2.4966720000000002 7.0200000000000005C2.4970320000000004 11.40216 2.498976 11.608224 2.54076 11.700216000000001C2.595288 11.82024 2.73096 11.94156 2.8495920000000003 11.97636C2.911584 11.994528 3.2909040000000003 12.000528 4.056 11.99544L5.172 11.988 5.268 11.922312C5.3208 11.886192 5.391 11.816784 5.424 11.768088L5.484 11.679528 5.490552 7.045751999999999C5.497848 1.8754560000000002 5.511624 2.2927440000000003 5.328288 2.12712C5.277192 2.080968 5.194128 2.031744 5.1437040000000005 2.017728C5.021688 1.98384 2.97588 1.9874640000000001 2.84604 2.021808M12.984 2.7218880000000003C12.372863999999998 3.330864 12.23616 3.4556400000000003 12.156 3.477528C12.093408 3.494616 11.684208 3.503952 10.98 3.504384C9.98016 3.505008 9.892871999999999 3.5083440000000006 9.804 3.5495039999999998C9.686352000000001 3.60396 9.590688 3.7029120000000004 9.541272 3.8212319999999997C9.508175999999999 3.9004800000000004 9.504048000000001 4.284648 9.504528 7.253232000000001C9.505032 10.501631999999999 9.506352 10.598712 9.551207999999999 10.692C9.608568 10.811304 9.638064 10.84632 9.744 10.920888L9.828 10.98 15 10.98L20.172 10.98 20.256 10.920888C20.361936 10.84632 20.391432000000002 10.811304 20.448792 10.692C20.493648 10.598688000000001 20.494944 10.502136 20.494944 7.248C20.494944 4.039776000000001 20.493096 3.895992 20.450496 3.8040000000000003C20.426064 3.7512000000000003 20.374992 3.678864 20.337024 3.643272C20.188824 3.5042880000000003 20.186136 3.5040240000000002 19.014768 3.503856C18.311927999999998 3.5037840000000005 17.906784 3.4946400000000004 17.844 3.4774800000000003C17.763912 3.455592 17.626584 3.3303599999999998 17.015136000000002 2.721624L16.282296 1.992 14.999136000000002 1.9922400000000002L13.716000000000001 1.9924560000000002 12.984 2.7218880000000003M3.504 6.996L3.504 10.992 3.996 10.992L4.488 10.992 4.488 6.996L4.488 3 3.996 3L3.504 3 3.504 6.996M14.462328 4.046568C13.266072000000001 4.262592000000001 12.31764 5.193552 12.055776 6.408816C11.994888 6.691416000000001 11.994840000000002 7.2998400000000006 12.05568 7.5840000000000005C12.321576 8.825832 13.27872 9.751272 14.516448 9.963168C14.72196 9.998376 15.27804 9.998376 15.483552000000001 9.963168C16.720560000000003 9.751392 17.678592 8.825136 17.944319999999998 7.5840000000000005C18.00516 7.2998400000000006 18.005112 6.691416000000001 17.944224000000002 6.408816C17.680344 5.184144 16.727928 4.256016 15.51876 4.045152C15.254232 3.9990240000000004 14.721648000000002 3.99972 14.462328 4.046568M14.78664 5.020416C14.308176 5.060688 13.910424 5.261112 13.544640000000001 5.646192C13.333800000000002 5.868168 13.202328 6.086424 13.100232 6.384C13.025184000000001 6.60276 13.021992 6.627096000000001 13.021728 6.984C13.021416 7.410504 13.049472 7.54788 13.201560000000002 7.86456C13.426728 8.333352 13.871808 8.730384 14.348927999999999 8.888088C14.773272 9.02832 15.226728 9.02832 15.651072000000001 8.888088C16.1262 8.731056 16.574208 8.331384 16.79844 7.86456C16.950528000000002 7.54788 16.978584 7.410504 16.978272 6.984C16.978008000000003 6.627096000000001 16.974816 6.60276 16.899768 6.384C16.856736 6.2585999999999995 16.77732 6.0804 16.723248 5.988C16.60428 5.784672 16.222896 5.39916 16.02624 5.28348C15.651288 5.06292 15.262319999999999 4.98036 14.78664 5.020416M2.902008 16.510344C2.7756000000000003 16.535040000000002 2.645664 16.624392 2.572464 16.736904L2.508 16.836000000000002 2.50164 19.914L2.49528 22.992 2.99964 22.992L3.504 22.992 3.504 21.744L3.504 20.496 4.752 20.496L6 20.496 6 19.992L6 19.488 4.752 19.488L3.504 19.488 3.504 18.492L3.504 17.496 5.256 17.496L7.008 17.496 7.008 16.992L7.008 16.488 4.998 16.49076C3.892512 16.492272 2.949288 16.501079999999998 2.902008 16.510344M20.490264 17.445552L20.484 18.403104000000003 20.316 18.301896C19.95864 18.086616000000003 19.685568 18.012719999999998 19.248 18.012936C18.874248 18.013104000000002 18.699432 18.049632 18.393144 18.191616C18.13236 18.312504 17.940456 18.446112 17.74668 18.641736C17.090424 19.304256000000002 16.84536 20.28372 17.098848 21.230976000000002C17.318112 22.05024 17.92284 22.694568 18.686880000000002 22.922952000000002C18.92676 22.994664 19.391448 23.011032 19.657752 22.957152C19.899863999999997 22.908168 20.153976 22.80612 20.351280000000003 22.678584L20.496 22.585056 20.496 22.788528000000003L20.496 22.992 21 22.992L21.504 22.992 21.504 19.740000000000002L21.504 16.488 21.000264 16.488L20.496552 16.488 20.490264 17.445552M8.844384 18.039816000000002C8.120327999999999 18.194952 7.4734799999999995 18.758568 7.197191999999999 19.47504C7.0416479999999995 19.878384 7.023456 19.984872 7.022735999999999 20.496C7.022136 20.927976 7.026960000000001 20.981928 7.085400000000001 21.196944000000002C7.305696 22.007544 7.8660000000000005 22.635432 8.599295999999999 22.893408C8.841912 22.978752 8.847384 22.979496 9.24 22.979736000000003C9.589176 22.979976 9.657288 22.973328 9.816 22.923552C10.206456000000001 22.801104000000002 10.517904 22.603968000000002 10.807872 22.29576C11.243328 21.832848000000002 11.46132 21.294432 11.487936 20.616C11.503272 20.22528 11.468232 19.952640000000002 11.36172 19.634376000000003C11.132159999999999 18.948312 10.614336 18.380616 10.00164 18.143352C9.637968 18.002496 9.201024 17.963424 8.844384 18.039816000000002M13.810680000000001 18.046248000000002C12.89136 18.261288 12.206064000000001 19.039991999999998 12.0348 20.064168C11.960568 20.508144 12.021216 21.103392 12.180311999999999 21.492C12.489024 22.246176 13.075104000000001 22.775351999999998 13.790952 22.946328C14.067336000000001 23.012352 14.557224000000001 23.001192 14.817984000000001 22.922928C15.892680000000002 22.600392 16.599792 21.46848 16.485504 20.253743999999998C16.425024 19.610952 16.202832 19.112808 15.781728000000001 18.675888C15.492096 18.375384 15.130392 18.157584 14.76 18.060648C14.518824 17.997528000000003 14.04936 17.9904 13.810680000000001 18.046248000000002M8.976 19.039128C8.776992000000002 19.096104 8.629224 19.186776 8.459616 19.356C8.157288 19.657656 8.015232000000001 20.0184 8.013744 20.488296C8.012256 20.960616 8.138568000000001 21.30096 8.432136 21.615576C8.706408 21.909528 9.014712 22.024584 9.405840000000001 21.978888C9.87948 21.923592 10.326744 21.45852 10.453272 20.889696C10.513296 20.619984000000002 10.492992000000001 20.187024 10.409136 19.94796C10.275624 19.56732 10.028256 19.271928 9.712152 19.115712000000002C9.547992 19.034592 9.506712 19.024512 9.306696 19.016784C9.170736 19.011552000000002 9.041928 19.02024 8.976 19.039128M13.965408000000002 19.042776C13.69764 19.116623999999998 13.407216 19.350168 13.239216 19.626696C12.956688 20.091792 12.932136000000002 20.746584000000002 13.178040000000001 21.257832C13.363680000000002 21.643776 13.739351999999998 21.939743999999997 14.094624 21.979944C14.453040000000001 22.020528000000002 14.752872 21.919008 15.013344000000002 21.668904C15.285768000000001 21.407328 15.433392 21.105792 15.481079999999999 20.71368C15.546984000000002 20.171664 15.362064 19.642032 14.987328 19.299552000000002C14.710272 19.046352 14.313768000000001 18.946728 13.965408000000002 19.042776M18.908544 19.063584000000002C18.706872 19.13232 18.584208 19.217496 18.40476 19.413336C18.247248000000003 19.585224 18.118344 19.825224000000002 18.055296 20.064C17.991072000000003 20.307192 17.997504 20.746392 18.068640000000002 20.976C18.21744 21.456264 18.505632 21.783816 18.916895999999998 21.940056C19.086264 22.004424 19.401 22.00428 19.586544 21.939743999999997C20.370648000000003 21.66708 20.733456 20.594736 20.32524 19.756344000000002C20.216184000000002 19.532328 19.981152 19.261872 19.806768 19.15968C19.538448 19.002408000000003 19.195608 18.965736 18.908544 19.063584000000002" stroke="none" fill="currentColor" fill-rule="evenodd" stroke-width="0.024"></path>
</svg>