<svg xmlns="http://www.w3.org/2000/svg" viewBox="0 0 24 24" version="1.1">
  <path d="M11.208 1.023168C9.657672 1.1593680000000002 8.452848 1.48872 7.140000000000001 2.1351839999999997C6.021912 2.685744 5.103936 3.3430560000000002 4.223496000000001 4.223496000000001C3.3430560000000002 5.103936 2.685744 6.021912 2.1351839999999997 7.140000000000001C1.5521040000000002 8.324136 1.228896 9.420096000000001 1.06296 10.776C1.029288 11.050992 1.02036 11.307792000000001 1.02036 12C1.02036 12.692207999999999 1.029288 12.949008000000001 1.06296 13.224C1.228896 14.579903999999999 1.5521040000000002 15.675863999999999 2.1351839999999997 16.86C2.685744 17.978088 3.3430560000000002 18.896064 4.223496000000001 19.776504C5.10396 20.656968 6.022032 21.314352 7.140000000000001 21.864792C8.312472 22.442088000000002 9.4338 22.77276 10.776 22.93704C11.274840000000001 22.998096 12.725328 22.998096 13.224 22.93704C14.573471999999999 22.771776 15.681648000000001 22.444992 16.86 21.864792C17.977968 21.314352 18.896040000000003 20.656968 19.776504 19.776504C20.656968 18.896040000000003 21.314352 17.977968 21.864792 16.86C22.444992 15.681648000000001 22.771776 14.573471999999999 22.93704 13.224C22.998096 12.725232 22.998096 11.274768 22.93704 10.776C22.771776 9.426528 22.444992 8.318352 21.864792 7.140000000000001C21.314352 6.022032 20.656968 5.10396 19.776504 4.223496000000001C18.896064 3.3430560000000002 17.978088 2.685744 16.86 2.1351839999999997C15.683496000000002 1.555848 14.579136000000002 1.228968 13.248000000000001 1.066056C12.939456 1.02828 11.495280000000001 0.997944 11.208 1.023168M11.534112 2.0183999999999997C10.164935999999999 2.077368 8.858376 2.411712 7.618104 3.020496C7.117968 3.2659920000000002 6.90828 3.386136 6.456 3.6863280000000005C5.619432 4.241592 4.802328 4.993272 4.162728 5.796C3.9157680000000004 6.105912 3.510528 6.702719999999999 3.3245039999999997 7.0304400000000005C2.529624 8.430719999999999 2.082768 9.977136 2.020968 11.541432C1.9516799999999999 13.295352 2.275704 14.86452 3.020496 16.381895999999998C3.5287680000000003 17.4174 4.072272 18.183696 4.880496000000001 19.004376C5.72208 19.858944 6.543744 20.452152 7.612343999999999 20.976672C9.140496 21.726768 10.678320000000001 22.045199999999998 12.453479999999999 21.979128C13.823160000000001 21.928128 15.125064 21.596400000000003 16.387656 20.976672C17.474952000000002 20.442984000000003 18.29196 19.849608 19.152408 18.968688C19.951752 18.150336 20.474496000000002 17.410728 20.976672 16.387656C21.726768 14.859504 22.045199999999998 13.32168 21.979128 11.546520000000001C21.937488000000002 10.427808 21.70224 9.332256 21.276432 8.273904C21.148128 7.9550399999999994 20.847696 7.333608 20.67528 7.0304400000000005C19.93224 5.724072 18.77724 4.495248 17.508 3.6607680000000005C17.085168 3.3827760000000002 16.865424 3.257832 16.381895999999998 3.020496C15.169344 2.42532 13.815743999999999 2.072928 12.568824000000001 2.0278080000000003C12.368160000000001 2.020536 12.15 2.011296 12.084 2.0072400000000004C12.018 2.003208 11.770536 2.0082240000000002 11.534112 2.0183999999999997M17.400000000000002 6.2491200000000005C17.264592 6.279504 5.029848 10.935048 4.874304 11.015376C4.761648 11.073552000000001 4.626215999999999 11.216784 4.55604 11.352C4.474944 11.508288 4.474968 11.843784 4.556088 12C4.62108 12.125136 4.731168 12.246792000000001 4.840992 12.314928C4.883352 12.341184 5.53536 12.588023999999999 6.289896000000001 12.863448C7.044456 13.138872 7.669992000000001 13.37316 7.68 13.384104C7.690008 13.395048 7.856592 14.214 8.050224 15.204C8.243832 16.194 8.418696 17.054976 8.438808 17.11728C8.486112 17.2638 8.66076 17.45736 8.817408 17.536872C8.986104 17.622504 9.206808 17.637144 9.384 17.574432C9.46872 17.54448 9.940896 17.241552000000002 10.702248 16.728768000000002C11.63184 16.102656 11.89668 15.934895999999998 11.926248000000001 15.9534C11.947008 15.966408000000001 12.5796 16.422936 13.332 16.96788C14.0844 17.512848 14.7486 17.981304 14.808 18.00888C14.971032000000001 18.084552000000002 15.233952000000002 18.079344000000003 15.410064 17.996976C15.562584000000001 17.925624 15.698568 17.800152 15.765168 17.669352C15.790199999999999 17.620224 16.370160000000002 15.231 17.053968 12.36C18.062712 8.124648 18.297456 7.10832 18.29832 6.972C18.30132 6.49668 17.864231999999998 6.1449359999999995 17.400000000000002 6.2491200000000005M11.5878 9.523871999999999C8.516496 10.694352 5.997936 11.65776 5.991024 11.664768C5.977536 11.678472000000001 8.050704000000001 12.440712000000001 8.096592000000001 12.438936C8.111664 12.438336 9.4794 11.737488 11.136000000000001 10.881456L14.148 9.325032 14.32236 9.315888C14.473632 9.30792 14.514072 9.315216000000001 14.627736 9.370824C14.986920000000001 9.546552 15.109368 9.988007999999999 14.890416 10.317816C14.858952000000002 10.365216 13.937184 11.192400000000001 12.842064 12.156C11.74692 13.1196 10.850568 13.913400000000001 10.850159999999999 13.92C10.849632 13.92876 14.050512 16.252655999999998 14.847168 16.821912C14.891736000000002 16.85376 14.93244 16.87536 14.9376 16.869912C14.954544 16.85208 17.187192 7.437528 17.179488 7.41636C17.175384 7.405032 14.659104000000001 8.353416000000001 11.5878 9.523871999999999M10.318464 12.434136000000002L8.696928 13.272816 8.925552000000001 14.435304C9.051312 15.074688 9.156216 15.595584 9.158688000000001 15.592896C9.161136 15.590208 9.250632 15.185160000000002 9.357576 14.692824000000002C9.464496 14.200464000000002 9.567744000000001 13.767168 9.586992 13.729920000000002C9.632544 13.641863999999998 9.647736 13.627944000000001 10.872 12.552C12.028008 11.536032 11.965752 11.591327999999999 11.9508 11.593728C11.944848 11.594664 11.210304 11.972856 10.318464 12.434136000000002M10.243968 15.353784C10.182336000000001 15.640968 10.135776 15.879792 10.140504 15.884496000000002C10.148184 15.892176 10.951464 15.357456 10.999608 15.312624C11.016696 15.296736000000001 10.459536 14.871024 10.384152 14.842368C10.365072 14.83512 10.31988 15 10.243968 15.353784" stroke="none" fill="currentColor" fill-rule="evenodd" stroke-width="0.024"></path>
</svg>