<svg xmlns="http://www.w3.org/2000/svg" viewBox="0 0 24 24" version="1.1">
  <path d="M11.208 1.023168C9.657672 1.1593680000000002 8.452848 1.48872 7.140000000000001 2.1351839999999997C6.021912 2.685744 5.103936 3.3430560000000002 4.223496000000001 4.223496000000001C3.3430560000000002 5.103936 2.685744 6.021912 2.1351839999999997 7.140000000000001C1.5521040000000002 8.324136 1.228896 9.420096000000001 1.06296 10.776C1.029288 11.050992 1.02036 11.307792000000001 1.02036 12C1.02036 12.692207999999999 1.029288 12.949008000000001 1.06296 13.224C1.228896 14.579903999999999 1.5521040000000002 15.675863999999999 2.1351839999999997 16.86C2.685744 17.978088 3.3430560000000002 18.896064 4.223496000000001 19.776504C5.10396 20.656968 6.022032 21.314352 7.140000000000001 21.864792C8.312472 22.442088000000002 9.4338 22.77276 10.776 22.93704C11.274840000000001 22.998096 12.725328 22.998096 13.224 22.93704C14.573471999999999 22.771776 15.681648000000001 22.444992 16.86 21.864792C17.977968 21.314352 18.896040000000003 20.656968 19.776504 19.776504C20.656968 18.896040000000003 21.314352 17.977968 21.864792 16.86C22.444992 15.681648000000001 22.771776 14.573471999999999 22.93704 13.224C22.998096 12.725232 22.998096 11.274768 22.93704 10.776C22.771776 9.426528 22.444992 8.318352 21.864792 7.140000000000001C21.314352 6.022032 20.656968 5.10396 19.776504 4.223496000000001C18.896064 3.3430560000000002 17.978088 2.685744 16.86 2.1351839999999997C15.683496000000002 1.555848 14.579136000000002 1.228968 13.248000000000001 1.066056C12.939456 1.02828 11.495280000000001 0.997944 11.208 1.023168M11.534112 2.0183999999999997C10.164935999999999 2.077368 8.858376 2.411712 7.618104 3.020496C7.117968 3.2659920000000002 6.90828 3.386136 6.456 3.6863280000000005C5.46384 4.344864 4.550472 5.230608 3.8474640000000004 6.216L3.66768 6.468 5.37984 6.486672C7.293912000000001 6.507528 7.22832 6.5013119999999995 7.37832 6.67656C7.5408 6.866352000000001 7.534944 7.1580960000000005 7.365072 7.336536000000001C7.227744 7.480824000000001 7.166064 7.4962800000000005 6.668808 7.510871999999999L6.221616 7.524 7.9013040000000005 12.336C8.825136 14.9826 9.587976000000001 17.155535999999998 9.596496 17.164728C9.612648 17.182152000000002 11.616071999999999 11.463288 11.616024 11.399952C11.616 11.380128000000001 11.28828 10.499928 10.88772 9.443952L10.15944 7.524 9.76572 7.511616C9.40368 7.500216000000001 9.363408 7.494408 9.265056 7.439616C9.206256 7.406832 9.125256 7.333128000000001 9.085056 7.2758400000000005C9.019944 7.183007999999999 9.012048 7.152984 9.012528 6.999840000000001C9.013008 6.853032000000001 9.02256 6.814032 9.078216000000001 6.732C9.114048 6.679200000000001 9.183168 6.609 9.23184 6.5760000000000005L9.320304 6.516 10.403232000000001 6.49488C11.026512 6.482735999999999 12.163848 6.482735999999999 13.082904 6.49488L14.679648000000002 6.516 14.768160000000002 6.5760000000000005C14.816832000000002 6.609 14.885952000000001 6.679200000000001 14.921784 6.732C14.97744 6.814032 14.986991999999999 6.853032000000001 14.987471999999999 6.999840000000001C14.987952000000002 7.152984 14.980056 7.183007999999999 14.914944 7.2758400000000005C14.874744 7.333128000000001 14.793743999999998 7.407 14.734944 7.44C14.634 7.49664 14.602368 7.500672000000001 14.17176 7.5120000000000005L13.715520000000001 7.524 15.350520000000001 12.224952C16.249776 14.810471999999999 16.990920000000003 16.916472 16.99752 16.904952C17.00412 16.893432 17.346263999999998 15.872736000000002 17.757839999999998 14.636736L18.506184 12.389472 18.481728 11.960735999999999C18.419832000000003 10.874640000000001 18.302712000000003 10.495728 17.749032 9.590328C17.337216 8.916888 17.058264 8.331408 16.94088 7.894152C16.862304 7.601544 16.861079999999998 6.995400000000001 16.938408000000003 6.688776000000001C17.126784 5.941872 17.66028 5.39484 18.370416 5.220408C18.593664 5.165592 18.963096 5.1320879999999995 19.14 5.15064L19.284 5.165736 19.176000000000002 5.05284C18.663144 4.516752 18.118224 4.061976 17.508 3.6607680000000005C17.085168 3.3827760000000002 16.865424 3.257832 16.381895999999998 3.020496C15.169344 2.42532 13.815743999999999 2.072928 12.568824000000001 2.0278080000000003C12.368160000000001 2.020536 12.15 2.011296 12.084 2.0072400000000004C12.018 2.003208 11.770536 2.0082240000000002 11.534112 2.0183999999999997M18.84 6.159288C18.405168 6.222792 18.164136000000003 6.37176 18.012672000000002 6.67068C17.883768 6.925056 17.843976 7.32024 17.91636 7.627248000000001C17.992416 7.9498560000000005 18.2208 8.424072 18.61512 9.078192C18.919871999999998 9.583752 19.053648000000003 9.835896 19.15248 10.090944L19.21716 10.257864 19.633632 9.010944L20.050104 7.764 20.049264 7.452C20.0472 6.67428 19.763736 6.252432 19.187256 6.169128000000001C19.019592 6.144888 18.951792 6.142968 18.84 6.159288M3.6593520000000006 7.554C3.6684 7.577088 4.7443919999999995 10.44516 6.0504240000000005 13.927464C7.3564799999999995 17.409744 8.43876 20.292504 8.455512 20.333544C8.484936 20.405664 8.495808 20.37996 8.777568 19.571687999999998L9.069168 18.735192 7.109688000000001 13.123608L5.150232 7.5120000000000005 4.39656 7.5120000000000005C3.6884880000000004 7.5120000000000005 3.643872 7.514544 3.6593520000000006 7.554M11.276904 7.626C11.30124 7.688712 12.367056 10.498272 13.645392 13.86948L15.969672000000001 19.99896 16.218912 19.251288L16.468128 18.503616 14.566944000000001 13.037808C13.521312000000002 10.031616 12.660623999999999 7.5585119999999995 12.654312000000001 7.542C12.645503999999999 7.518936 12.479736 7.5120000000000005 11.937792 7.5120000000000005L11.232696 7.5120000000000005 11.276904 7.626M21.017064 7.969583999999999C20.99496 8.080919999999999 20.031912000000002 11.006328 18.876936 14.470488000000001C17.72196 17.934648000000003 16.779456 20.77128 16.78248 20.774112C16.793088 20.784 17.246328 20.514096000000002 17.508 20.342088C18.036816 19.994472 18.45672 19.652496000000003 18.968688 19.152408C19.849608 18.29196 20.442984000000003 17.474952000000002 20.976672 16.387656C21.726768 14.859504 22.045199999999998 13.32168 21.979128 11.546520000000001C21.932904 10.305 21.641568 9.066048 21.126696 7.921583999999999L21.05724 7.767168 21.017064 7.969583999999999M2.669472 8.414592C2.28456 9.398856 2.06352 10.464624 2.020968 11.541432C1.9516799999999999 13.295352 2.275704 14.86452 3.020496 16.381895999999998C3.257832 16.865424 3.3827760000000002 17.085168 3.6607680000000005 17.508C4.58232 18.909648 5.9660400000000005 20.152848 7.412016 20.878224000000003C7.59288 20.968944 7.610472000000001 20.973624 7.595688000000001 20.92704C7.586712 20.898696 6.5018400000000005 18.002184 5.184888 14.49036L2.7904560000000003 8.105208 2.669472 8.414592M11.785272 14.009376000000001C11.57016 14.626824000000001 10.893792000000001 16.565592 10.282200000000001 18.317736C9.670608 20.06988 9.167016 21.521088 9.163104 21.542640000000002C9.154944 21.587592 9.218136 21.609888 9.66 21.71808C10.948872 22.033608 12.433776 22.076567999999998 13.776 21.837168C14.373216000000001 21.730656 15.408 21.442392 15.408 21.382535999999998C15.408 21.351816 12.213264 12.927816 12.193104 12.905376000000002C12.183912000000001 12.895152 12.000384 13.391952000000002 11.785272 14.009376000000001" stroke="none" fill="currentColor" fill-rule="evenodd" stroke-width="0.024"></path>
</svg>