<svg xmlns="http://www.w3.org/2000/svg" viewBox="0 0 24 24" version="1.1">
  <path d="M1.275096 1.094952C1.103784 1.18032 1.0250160000000001 1.301112 1.012488 1.497672C1.006296 1.5950399999999998 1.015368 1.674192 1.038984 1.7288640000000002C1.058736 1.7745840000000002 3.057648 4.4418 5.481024000000001 7.656000000000001C7.904376 10.8702 9.884328 13.509 9.880896 13.519968C9.877488 13.530959999999999 8.071368000000001 15.473304 5.867352 17.83632C3.6633120000000003 20.199312000000003 1.835304 22.173648 1.805136 22.223688C1.765968 22.288632 1.749792 22.353696 1.748616 22.4508C1.7431919999999999 22.905528 2.269584 23.132064 2.595672 22.815360000000002C2.640264 22.77204 4.435992 20.850072 6.586152 18.544296C8.736312 16.238544 10.502856000000001 14.352 10.511784 14.352C10.520712 14.352 11.95524 16.246128000000002 13.699608000000001 18.561168C15.443976000000001 20.876184000000002 16.908863999999998 22.803408 16.954944 22.843848C17.001 22.884287999999998 17.07948 22.928712 17.129352 22.94256C17.190096 22.959432 18.106752 22.967784 19.909296 22.967856L22.598568 22.968 22.724904 22.905048C22.896216000000003 22.81968 22.974984000000003 22.698888 22.987512 22.502328C22.993704 22.404888 22.984656 22.325856 22.960992 22.271136000000002C22.941216 22.225416 20.94228 19.5582 18.518928 16.344C16.095552 13.129800000000001 14.112623999999999 10.49412 14.112408000000002 10.486944000000001C14.112167999999999 10.479792 15.918312000000002 8.537352 18.126 6.170472C20.333688 3.8035680000000003 22.164696 1.826136 22.194864 1.776144C22.321848 1.565904 22.241136 1.2525840000000001 22.025688 1.119384C21.806376 0.983784 21.574224 1.01556 21.382032000000002 1.207464C21.32664 1.26276 19.53144 3.184512 17.392680000000002 5.478C15.253944 7.7715119999999995 13.496808 9.648 13.487976000000002 9.648C13.47912 9.648 12.058104 7.7715119999999995 10.330128 5.478C8.602176 3.184512 7.150512 1.265808 7.104191999999999 1.214256C6.9286080000000005 1.018728 7.165296 1.033128 4.114704 1.032528L1.401432 1.032 1.275096 1.094952M2.534352 2.067816C2.569944 2.125392 17.455416 21.87768 17.49372 21.918143999999998C17.531232 21.957768 17.651616 21.959904 19.50732 21.954144L21.481032 21.948 13.984752 12L6.488472000000001 2.052 4.5027360000000005 2.045856C2.990544 2.041176 2.521128 2.0464320000000003 2.534352 2.067816" stroke="none" fill="currentColor" fill-rule="evenodd" stroke-width="0.024"></path>
</svg>