<svg viewBox="-0.06963088495234171 -2.842170943040401e-14 567.0196308849522 129.11" xmlns="http://www.w3.org/2000/svg" width="2500" height="569"><path d="M95.16 38.35s-2.42 5.49-3.11 7c-.53 1.16-1.87 3.95-2.18 5s-.9 3.35-1.15 4a8.94 8.94 0 0 1-3.16 3.82 16.82 16.82 0 0 1 .09 2.24 5.72 5.72 0 0 1-.87 2.54c-.5.78-2.86 4.16-2.86 4.16H57.05l-2.39-2.82s2.67-5.65 3.48-7.46a20.24 20.24 0 0 1 1.89-3.5 10 10 0 0 1 1-1.06s.22-2.67.28-3.07l-2.08-2.05-4.41.49a12.38 12.38 0 0 1-3-.18c-1.06-.13-3.88-.66-4.69-.75a11 11 0 0 0-2.42 0s-3.29 3.54-3.67 4a1.41 1.41 0 0 0-.24 1.18c0 .24.46 2.42.59 3.54a26 26 0 0 1 0 3.72c-.06.72-.53 6.86-.62 7.61a4.53 4.53 0 0 0 .21 2.2 17.35 17.35 0 0 1 .72 2.61 3.19 3.19 0 0 0 .56 1.62c.4.4 2.42 1.74 2.92 2.17a21.77 21.77 0 0 0 1.77 1.28h30.1a7.44 7.44 0 0 1 2.27.18 4.66 4.66 0 0 1 1.64.93 7 7 0 0 1 .56.93c.09.19.26.1.36-.15s.78-1.58 1.77-1.58h5l1.41 2.79s.09 4 .19 4.72a6 6 0 0 1-.28 2.36c-.22.53-1.77 3.63-1.9 3.85a3.07 3.07 0 0 0-.25 1c0 .22-.09 4-.09 4.44a3.6 3.6 0 0 1-.43 1.46c-.25.47-1.12 1.84-1.25 2.12a6.33 6.33 0 0 0-.46 1.52c-.09.62-.6 2.58-.6 2.58h-2.04c-.56 0-1.21-.08-2-.08-2 0-3.25.08-6.2.08-.3 0-2.66-1.21-3-1.21s-1.76.18-2.12.18c-.79 0-1.44.8-2.06.84-1.2.07-2.25.19-3.88.19-.88 0-1.24-.78-2.12-.78-.43 0-2.67.78-3.1.78h-3.4c-2.54 0-4.91-.57-7-.57a52.8 52.8 0 0 0-6.78.57 46.75 46.75 0 0 1-7.95-.76 46.65 46.65 0 0 1-8-3.19 54.79 54.79 0 0 1-6.38-4.22v-3.53l1.36-1.47a14.76 14.76 0 0 1-2-.28 3.48 3.48 0 0 1-2.28-1.32c-.45-.67-1.87-2.92-1.94-4.65l.29-34.73-1.68-2.48H4.45S1.31 45.08.32 44.52c0 0-.12-3 0-4s.31-1.86.28-2.3a11.84 11.84 0 0 0-.56-1.64 4.18 4.18 0 0 1 0-1.65c.06-.22.68-2.83.68-2.83l-.71-1.7v-5.31s1.1-.62 1.64-1 1.3-1.05 1.52-1.24c.37-.35.76-.57 1.63-.14a9.25 9.25 0 0 0 3 .81c1 .06 2.95.15 3.26.15a2.18 2.18 0 0 0 1.09-.34 17.85 17.85 0 0 1 2.13-1.35s.1-5.62.1-5.73a4.18 4.18 0 0 0-.42-.75l.05-5.16s7.08-1.63 8.21-1.92a5 5 0 0 1 3.34 0c1.5.52 3.87 1.27 4.28 1.4a3.1 3.1 0 0 0 2.18.19l2.61-.88a3.7 3.7 0 0 1 1.92-.06c1 .21 4 .87 4 .87v5.34a2.5 2.5 0 0 0 .47 1.37 8.46 8.46 0 0 1 .31 2c0 .63-.25 3.72-.25 3.72l5.76 2a3.06 3.06 0 0 0 1.64.19c.58-.13 3.23-.6 4-.77s3.5-.6 3.89-.64c.82-.09 2.77-.12 3.36-.12l23.49-.13 2.31 3.76a2.57 2.57 0 0 0 1.21 1.11c.56.23 2.12.7 2.37.81a2.35 2.35 0 0 1 1.25 1c.44.65 4.8 8.77 4.8 8.77zM61.68 16.99l2.52 2.77a9.56 9.56 0 0 1 1.45-.06.84.84 0 0 1 .46.29h5.21a1.69 1.69 0 0 1 1-1.35c.27-.1.49-.1.76-.18s.85-.36.85-.36l.06-12.21-1.67-2h-5.86c-.86 0-2.07-.19-2.07-.19a11.25 11.25 0 0 1-3 2.59c.06.54.2 4.31.2 5.76s.09 4.94.09 4.94zm16.19.2a5.92 5.92 0 0 1 1.61 1.58l.87 1.41 3.27.08c.42-.29 1.41-.91 1.72-1.1a2.67 2.67 0 0 1 1.32-.21 11.76 11.76 0 0 1 1.74.44s1.33-.87 1.58-1a2.65 2.65 0 0 1 .68-.22V4.52a4.79 4.79 0 0 1-.72-.49c-.42-.33-1.54-1.51-1.54-1.51s-2 1-2.15 1a28.32 28.32 0 0 1-2.92 0c-.43-.06-3-.58-3-.58a6.61 6.61 0 0 1-2.23 1.9 18.25 18.25 0 0 1 .19 2.36c0 .74 0 7.66-.07 8.17a7.55 7.55 0 0 1-.35 1.82zm53.57 19.64c0-1 .54-9.91.61-11.18a21.74 21.74 0 0 1 .39-2.78 7.32 7.32 0 0 1-.57-2.21l-4.55-2.84a14.12 14.12 0 0 1-2.61.86c-.41.83-2.11 1.62-2.11 1.62l-.58.95-.12-.91a21.64 21.64 0 0 0-1.05-2.25 2.47 2.47 0 0 0-1.95-1.32c-.61-.16-1.82-.4-2.81-.76a25.45 25.45 0 0 1-2.72-1.3 10.32 10.32 0 0 1-2.5 2.83 7.31 7.31 0 0 1-3.49 1.87 9.62 9.62 0 0 0 .11 1.85c.06.5.53 4.2.65 5.06s.09 1.18-.12 1.49a25.21 25.21 0 0 0-1.12 2.36 2.23 2.23 0 0 0-.13 1.53c.16.46 1 2.23 1.34 2.88a1.56 1.56 0 0 1 0 1.25l-1.39 4.62a12.92 12.92 0 0 0-.56 2.35c0 .75-.15 10.86-.15 10.86s-.82 2.05-1.45 3.72a19.37 19.37 0 0 0-.58 5.36 13.71 13.71 0 0 1-.41 2.85c-.17.59-1.91 5.22-2.24 6.05a17.18 17.18 0 0 0-.95 3.44c-.13 1-.08 3.76-.08 3.76s-.42 1.08-.59 1.58-.7 3.19-.91 3.85-1.94 8.24-2.15 8.74-3.6 7.08-3.6 7.08 4.26 3.31 4.55 3.43a5.22 5.22 0 0 0 1.49.38 20.89 20.89 0 0 0 2.49.37c.74 0 3.27-.21 3.68-.25a18.16 18.16 0 0 0 1.83-.46 14.87 14.87 0 0 0 2.07.79 13.75 13.75 0 0 0 3.68.54c1.53 0 4.14-.17 4.14-.17s2-2.94 2.69-3.93 2.45-3.56 2.53-3.89a20.21 20.21 0 0 0 .2-2.57c0-.7.09-2.69.09-2.69s2-4.39 2.23-5.22a10.11 10.11 0 0 0 .29-2.15c0-.42.29-1.66.38-2.61s.2-2.48.2-2.48 1.12-3.94 1.33-4.64 1.49-5.34 1.49-5.34c0-.62-.09-2.82-.13-3.31a34.53 34.53 0 0 1 0-3.56c.08-.71.91-3.32 1.12-4.39s.75-5.76.91-7.33 1.08-12.78 1.13-13.78zm62.61 33.26a13.78 13.78 0 0 1 .44-3.17 8.34 8.34 0 0 0-.1-3.79c-.21-.77-1.3-3.29-1.3-3.29s-.93.65-1.46.93-6 3-6.71 3.14-1.52 0-2.05.18a9.38 9.38 0 0 0-1.95 1.15c-.62.44-6.8 4.57-7.21 4.72a7.81 7.81 0 0 1-2 .13 5 5 0 0 0-1.73.4c-.47.19-4.6 1.9-5.19 2a1.26 1.26 0 0 1-1.3-.4c-.22-.31-2.21-3.14-2.46-3.54a1 1 0 0 1 .13-1.31 15.94 15.94 0 0 0 1.36-2 3.45 3.45 0 0 0 .44-1.61V46.92a7.94 7.94 0 0 0-.41-2.32 22.92 22.92 0 0 0-1.08-2.09 3 3 0 0 1-.37-1.46l.06-24c-.5 0-3.29-.21-4-.31a5.61 5.61 0 0 0-2.26.13 11.66 11.66 0 0 1-2.15.52c-.31 0-1.64-.59-2.11-.71a4 4 0 0 0-2 0c-1 .19-4.44.81-5 .81a4.63 4.63 0 0 1-2-.78 1.73 1.73 0 0 0-1.9 0c-.43.31-2.76 2.11-2.76 2.11s.22 14.75 0 15.5-.31.93-.5 1.52a3 3 0 0 0-.12 1.55 19.87 19.87 0 0 0 1.08 1.68 4.56 4.56 0 0 1 .25 2.23c0 .84.28 24.85.28 24.85s.22 25.46.19 25.93-.44 1.89-.56 2.6a7.21 7.21 0 0 0 .19 2.4 4.45 4.45 0 0 1-.13 2.17 18.09 18.09 0 0 0-.06 3.63l1 .28c.28.09.53.44.9.53a3.39 3.39 0 0 1 .84.4s.9-.28 1.27-.37 3.61-.06 4.66-.06 6.58-.16 6.8-.22 1.21-.62 1.62-.81 1.3-.43 1.7-.59a3.68 3.68 0 0 0 .94-.65 3.13 3.13 0 0 1 .68-2.17c.46.31 1.8 1.36 1.8 1.36a31.94 31.94 0 0 1 3.23.66l6.89-3.05h3.95s6.8-3.29 7.23-3.54a7.71 7.71 0 0 1 2.42-.9 23 23 0 0 0 3.39-.46 5.47 5.47 0 0 0 2.45-1c.75-.59 5.13-3.29 5.13-3.29s.12-13 .06-14.22-.51-4.08-.51-4.69zm71.74 2.83a11.22 11.22 0 0 0 1.49.2 1.63 1.63 0 0 0 1-.16 16.3 16.3 0 0 0 1.82-1.15 7.13 7.13 0 0 0 1.56-1.89c.25-.45 2.67-5.45 3.12-6.27s6.27-12.56 7.15-14.21 7.2-14.21 7.2-14.21c-.58-.34-3.81-2.9-4.12-3.23a5.38 5.38 0 0 1-1-1.39 16.93 16.93 0 0 0-.31-2.12 2.78 2.78 0 0 0-1.08-1.26 6.44 6.44 0 0 1-1-.74c-.19-.22 0-1-.15-1.26s-.47-1.35-.71-1.82a8.86 8.86 0 0 0-1.57-1.72 3.39 3.39 0 0 1-.71-.89 17.48 17.48 0 0 0-1.32-1.35c-1.35-.22-5.6-1.26-5.6-1.26s-6.74.46-7.69.46-11.56.46-12.3.49a1.47 1.47 0 0 1-1.26-.49 6.36 6.36 0 0 1-.83-1.69 1.72 1.72 0 0 1 .06-1.42c.15-.34 2-3.6 2-3.6s-4-2.06-4.4-2.24a4 4 0 0 0-2 .15 19.33 19.33 0 0 1-2.86.46c-.31 0-1.69-.68-2.21-.77a21.92 21.92 0 0 0-3.11 0c-1.14.06-7.41.31-7.69.31a14.29 14.29 0 0 0-2.12.15 3.74 3.74 0 0 1-1.79 0 6.43 6.43 0 0 0-1.5-.12c-.43.37-2 1.23-2.22 1.45s-2 4-2.49 4.8a38.54 38.54 0 0 1-3.15 4.25 31.72 31.72 0 0 0-2.58 3.32 5.49 5.49 0 0 0-.94 2.55 5.72 5.72 0 0 1-.37 2.25c-.25.37-1.6.54-2.34.82a3.13 3.13 0 0 0-1.68 1.56 17.93 17.93 0 0 1-1.56 2.83 6.29 6.29 0 0 1-1.85 1.39 7.06 7.06 0 0 0-1.88 2.38 32 32 0 0 1-2.46 3.49 9.59 9.59 0 0 1-2.3 1.27 10 10 0 0 0-2.42 2.05c-.49.62-2.05 2.38-2.75 3.08s-2.5 2.38-2.5 2.38 1.31 1.51 2.13 2.66a16.39 16.39 0 0 0 1.68 2.13c.46.46 3.2 2.3 4.43 3.24s3.33 2.38 3.86 2.92 2.29 2.54 3 3.11 1.64 1.64 3.08 3.12l2.31 2.4c.19-.1 1.28-.92 1.75-1.23a38.17 38.17 0 0 0 3.18-2.58c.41-.46 1-1.42 1.35-1.87s2-2.59 2.48-3 2.22-2.4 2.52-2.66.41-.45.72-.54.88-1 1.33-1.41 1.46-1.19 1.73-1.5.67-1.23 1.06-1.91 1.48-2.58 1.89-3.25a21.66 21.66 0 0 1 1.68-2.4 6.49 6.49 0 0 1 1.33-1.13 9.66 9.66 0 0 0 1.6-1.6c.35-.41 1-1.23 1.27-1.5a1.87 1.87 0 0 1 1-.53 17.51 17.51 0 0 1 1.8 0h7.43a12.37 12.37 0 0 1 1.53.47 3.87 3.87 0 0 0 1.46.12c.59-.06 1.78-.3 2.52-.41s4-.26 4.25-.28.45.16.65.35.86.86 1.15 1.12a4.91 4.91 0 0 1 1 1.17c.2.43-.07.58-.25.86s-.9 1.56-1.19 2.12-1.5 3-1.82 3.52a17.52 17.52 0 0 1-2.23 2.83 17.88 17.88 0 0 0-2.09 2.48c-.33.55-.85 1.45-1.16 1.88s-.53.21-1 0-12.85-7-12.85-7a32.13 32.13 0 0 0-3.92 3.5 12.24 12.24 0 0 0-1 2 8 8 0 0 1-1.39 2.67c-.46.45-1.45.9-1.84 1.28a8.31 8.31 0 0 0-1.1 1.9 3.51 3.51 0 0 1-.88 1.24c-.44.43-2.05 1.74-2.55 2.08-.3.2-.47.32-.33.71a12.15 12.15 0 0 0 1.31 2.51c.43.47 1.6 1.37 1.93 1.68a20.27 20.27 0 0 0 1.78 1.43 3.58 3.58 0 0 0 1.34.43 2.34 2.34 0 0 1 1.25.5 8.57 8.57 0 0 1 .9 1.31c.25.37 1.25 1.72 1.64 2.15a15.15 15.15 0 0 0 1.74 1.42c.33.22.15.45.07.65a10.69 10.69 0 0 1-.7 1.07 3.08 3.08 0 0 1-.94.78c-.35.18-2.15 1-2.46 1.21a5.3 5.3 0 0 0-1.25 1.12c-.27.41-.57 1.45-.88 1.94a19.92 19.92 0 0 1-2.38 2.73c-.62.52-1.93 1.79-2.42 2.22a3 3 0 0 0-.92 1.31 4.92 4.92 0 0 1-1 1.8c-.45.39-1.6 1-2.4 1.6a35.23 35.23 0 0 0-3 2.87c-.72.72-4.55 4.41-5.5 5.28s-8.18 6.82-8.92 7.42-5.92 4.61-5.92 4.61c.24.29 1.92 2.52 2.46 3.08s1.17.47 1.74.67 1.23.74 1.6.87.57 0 1-.25 1.39-.66 1.88-.9.53-.09.7.12.16 1.11.41 1.93a4.11 4.11 0 0 0 2.34 2.34c1 .28 4.92 1.68 5.86 2s7.06 2.51 8.29 3a3.33 3.33 0 0 0 2.37 0c.78-.13 2.64 1.22 3.42 1.1s1.24-1.75 1.86-1.87a12.62 12.62 0 0 0 2.72-2.1 28.75 28.75 0 0 0 1.15-3 4.42 4.42 0 0 0 2.26-1.06c.49-.42 2.7-3 4-4.35s3.69-4.15 4.76-5.46 4.92-6.31 5.64-7.28a3.31 3.31 0 0 0 .47-1.66 5.44 5.44 0 0 1 .7-2.23 3.3 3.3 0 0 1 1.8-.86 3.45 3.45 0 0 0 1.5-1.17c.37-.47.84-1.21 1.07-1.56a18.92 18.92 0 0 1 1.39-1.85 1.8 1.8 0 0 0 .45-1.29c0-.26-.08-1.76-.12-2.21a1.41 1.41 0 0 1 .49-1 8.13 8.13 0 0 0 1.11-.86c.53-.72 6.49-10.44 6.92-11.16a4 4 0 0 0 .63-2.85 12.62 12.62 0 0 0-.53-1.73c-.14-.36.04-.4.25-.34zm-2.74-57.58s.83.32 1.13.41a7.72 7.72 0 0 0 1.5.39c.5 0 .78-.2 1.3-.22s2.44 0 2.9.08.81 0 1-.26 1.1-1 1.1-1a6.29 6.29 0 0 1 .55-2c.17-.35 1.14-1.66 1.14-1.66a12.2 12.2 0 0 1-.73-1.77c0-.21-.07-1.24-.07-1.66s.05-5.73.05-5.73a14.94 14.94 0 0 1-1.48-.77A16.27 16.27 0 0 1 270.1 0s-1.23.68-1.76.89a8.15 8.15 0 0 1-2.49.16c-1 0-2.21-.07-2.21-.07a7.3 7.3 0 0 1-2.59 2.11 40.46 40.46 0 0 1 .34 5.43 32.33 32.33 0 0 1-.3 4.43 5.5 5.5 0 0 1 1.49 1.16 2.81 2.81 0 0 1 .47 1.23zm21.52 1.19a3 3 0 0 1 1.54-1.4 9.49 9.49 0 0 1 1.8-.17 2.65 2.65 0 0 1 1.53-1.92s-.65-3.73-.73-4.11a10.28 10.28 0 0 1-.21-2.09c0-.81.33-5.26.33-5.26a15.88 15.88 0 0 1-1.61-.52 1.7 1.7 0 0 1-.91-.71h-7c-1.2 1.88-2.14 2-2.14 2s.23 2.22.33 3.53.12 2.89.1 3.59c0 .55-.25 4.46-.25 4.46a18.31 18.31 0 0 1 1.82 1 6.47 6.47 0 0 1 1.35 1.61zm69.08 61.71a44 44 0 0 1-1.68 9c-.15.45-.38 1-.67 1.74-.19.45-.4-.08-.64.44s-.49 1.95-.76 2.48a27.88 27.88 0 0 1-4.16 6.15c-.81.86-1.6-.18-2.43.5-.41.34-.84 2.45-1.25 2.74-2.78 2-5.79 2.51-8.59 3.5-1.67.59-2.9 1.77-4.59 2.23-.29.08-1.39-.55-1.66-.47s-.22.89-.44.95c-1.68.43-2.86.7-2.86.7l-1.4-5.17-1.27-1.27a29.65 29.65 0 0 0-.31-3c-.16-.65-.37-1.15-.16-1.6a2.81 2.81 0 0 0 .06-1.27 20.08 20.08 0 0 0-.57-2.25c-.13-.41-.33-1.81-.33-1.81a39.32 39.32 0 0 0 5.13-1.6 21.34 21.34 0 0 0 7-4.67 22.37 22.37 0 0 0 3.86-7.18 27.84 27.84 0 0 0 .86-6.69 49.54 49.54 0 0 0-2.18-5.33 14.18 14.18 0 0 0 0-2.46 19.77 19.77 0 0 0-2.05-3.65c-.61-.82-.9-.94-1.51-1.06s-1.32-.33-1.89-.5-1.27-.61-1.6-.45a4.87 4.87 0 0 0-1.19 1.11 14.89 14.89 0 0 1-2.13 2.17 12.65 12.65 0 0 0 .45 2.51 11.1 11.1 0 0 1 .16 4 83.88 83.88 0 0 1-1.47 8.37 33.46 33.46 0 0 1-2.3 6.23 16.79 16.79 0 0 0-1.44 2.83c-.24.78-.82 2.79-1.18 3.69a9.46 9.46 0 0 1-2 2.51c-.58.57-1.4 1.31-1.4 1.31a12.28 12.28 0 0 1-.16 1.6 3.25 3.25 0 0 1-.82 1.56c-.49.53-2.05 2.21-3 3.15s-2.42 2.79-2.82 3.29a8.54 8.54 0 0 1-1.61.61c-.61.12-1.88.45-2.46.62a9 9 0 0 1-2 .57 10.37 10.37 0 0 1-2-.86c-.53-.25-1.8-.82-2.62-1.11a10.53 10.53 0 0 0-2.87-.29 10.61 10.61 0 0 1-2.22-.16 4.24 4.24 0 0 1-1.72-1.15 5.06 5.06 0 0 1-.78-1l-.61-.17a8 8 0 0 0-.95-1.19 13 13 0 0 0-1.76-1.06 4 4 0 0 1-1.52-1.64 14.9 14.9 0 0 1-1.19-4.39 7.15 7.15 0 0 1 .54-2.79c.24-.49.73-1.48.86-1.72a.76.76 0 0 0-.13-.86c-.24-.29-2.82-2.38-3.36-3.16a33.89 33.89 0 0 1-1-12.43c.49-5.94 4.22-14 6.89-17.26a37.85 37.85 0 0 1 5.33-5.75 9.51 9.51 0 0 1 3.94-1.64 9.54 9.54 0 0 0 2.76-1.68 46 46 0 0 0 4.54-2.48c1.88-1.23 4.75-1.9 8.57-2.35a52.15 52.15 0 0 1 10.16-.33 35.86 35.86 0 0 1 5.91 1.31 33.55 33.55 0 0 1 6.85 3 20.4 20.4 0 0 1 4.27 3.65 6.86 6.86 0 0 1-.58 2.79 6.15 6.15 0 0 1 2.42-.08 12.54 12.54 0 0 0 2.14.53s4.59 6.56 5.29 7.63a7.47 7.47 0 0 1 1.19 2.79c.08.69 0 3.69 0 3.69a1.41 1.41 0 0 1 .78.45c.2.33 1.47 2.34 1.64 2.66a3.36 3.36 0 0 1 .33 1.24c.14.28.5 7.46.38 9.68zm-43.9-18.95s-1.52-1.48-1.77-1.64a.82.82 0 0 0-1.06 0c-.49.33-3 1.8-3.61 2.34a7.57 7.57 0 0 0-1.8 2.21c-.5.94-3.24 6.81-3.61 7.63a9 9 0 0 0-.78 2.54c-.13.9-.17 4.59-.13 5.58a4 4 0 0 0 1.07 2.75 15.72 15.72 0 0 0 2.54 2.21 3.54 3.54 0 0 0 2.5-.08 2.69 2.69 0 0 0 1.64-1.64c.37-.78 2.42-7.18 2.88-9.11s1.92-8.32 2.05-9.22.08-3.57.08-3.57zm78.87-34.42a13.23 13.23 0 0 1 1.85-2.2l.86-3.23s-2.27-1.9-2.8-2.23-.37-1.71-.53-2a29.44 29.44 0 0 1-2.21-3.06 15.92 15.92 0 0 0-1.15-2 33.42 33.42 0 0 1-3.28-.66 55.69 55.69 0 0 0-6.19-1.23l-4.42 8c-.33.58-.71 3.19-1 3.67-.39.69-1.31 2.87-1.51 3.22-.79 1.43-1.74 3.52-3.78 6.76-.24.38-1.89 2.13-2.11 2.48-.82 1.3-2.53 2.35-2.89 2.9-.5.76-.39.72-1.47 2.36-.47.7-.79 2-1.24 2.67s-1.7 1.15-2.07 1.7l-.92 1.4s2.83 9.47 3.38 11.53a27.51 27.51 0 0 1 1 4.31c.06 1 .24 5.44.4 6.77s.86 4 .92 4.49.37.4.52.37a13.3 13.3 0 0 0 1.69-1c.53-.33 2-.89 2.31-.58s.18 1.29.34 1.69a4.88 4.88 0 0 1-.1 1.57 27.87 27.87 0 0 1 .06 3c0 .68-.08 5.84-.09 6.54 0 1.49.1 2.72.08 4.1v1.33a36.55 36.55 0 0 1-.59 5.36 12.9 12.9 0 0 0 .87 2.83 2.63 2.63 0 0 1 .25 1.6c-.15.43-.34 1.26-.49 1.88s-.77 4.55-.77 4.55c.71.24 2.31.95 2.8 1.17a3.83 3.83 0 0 0 1.5.15 13.51 13.51 0 0 0 2.07-.28 9.82 9.82 0 0 1 2.27-.37l13.84.13s-.43-2.46-.49-2.89a16.32 16.32 0 0 0-.4-2.09 2.86 2.86 0 0 1-.08-1.49 8.28 8.28 0 0 0 .52-1.29c0-.37-.06-2.43-.09-3.13a2 2 0 0 0-.43-1.26 11.13 11.13 0 0 0-1.17-.9c-.18-.15-.28-.34-.12-.46s.89-.58 1.2-.8a1.43 1.43 0 0 0 .77-1.23c0-.71.07-6.58 0-7.15a7.35 7.35 0 0 0-.74-2 4.89 4.89 0 0 1-.49-1.64V63.5c0-.41 1-3.4 1.23-4.22a17.72 17.72 0 0 0 .08-3.24c0-.74-.49-16.53-.49-16.86a19.27 19.27 0 0 0-1-2.87 2.66 2.66 0 0 1-.16-1.6c.12-.57.9-4.47.86-4.88a2 2 0 0 0-.16-.65s2.62-2.22 3-2.59a3.29 3.29 0 0 0 .76-1.72zm6.15-2.54a2.73 2.73 0 0 1-.29 1.76 3.8 3.8 0 0 0 .33 2.42c.33.9 1.81 4.76 1.81 4.76a40.2 40.2 0 0 0 5.12-1.36s1.81.74 2.59 1a2.72 2.72 0 0 0 1.84 0l1.68-.7s.82.25 1.19.33 1.36.2 2.18.33 3.52.78 4.14.94a5.27 5.27 0 0 0 1.76 0 25.63 25.63 0 0 0 2.54-.61 15.15 15.15 0 0 1 3.24-.5h16.94c.45 0 1.48.33 1.89.33h4.67a35.28 35.28 0 0 1 3-3.4l-.06-11.23v-4.51l-1-.09-1.64-1h-20.47s-2.55.86-2.88 1-.4.86-.77 1.56-.54-.13-.58-.25a4.09 4.09 0 0 0-.61-1.11 4.9 4.9 0 0 0-2-.86h-14.44a8.13 8.13 0 0 0-2.21.69 4.3 4.3 0 0 1-2.26.45 1.28 1.28 0 0 1-1.35-.7 3 3 0 0 0-.82-.65l-4 .87.08 4.51a1.68 1.68 0 0 1-.37.7 2 2 0 0 0-.37 1.43c.01.36.96 3.27 1.12 3.89zm32.49 46.76a1 1 0 0 0-.21 1c.1.48.44 2.45.56 3.11a1.43 1.43 0 0 0 .34.71c.17.19 1.31 1.32 1.44 1.45a.47.47 0 0 1 .06.58c-.14.25-1.11 2.13-1.31 2.4a.78.78 0 0 1-.65.44c-.38.06-2.68.34-3.84.44s-2.55.15-3 .15-.61-.13-.72-.4-1.31-2-1.44-2.21a.91.91 0 0 1-.06-.9c.17-.34 2.55-5.87 3-6.94a2.74 2.74 0 0 0 .13-2 2.85 2.85 0 0 1 .13-1.66c.16-.33 2.93-6 3.17-6.57s.93-.28 1.06-.2 1.19.61 1.6.78a9.29 9.29 0 0 0 2.5.53c.78 0 5.17 0 5.54-.08a3.57 3.57 0 0 0 1.68-.82 1.22 1.22 0 0 1 1.27-.25c.24.08 1 .62 1.27.74a4.64 4.64 0 0 0 1.35 0 1.11 1.11 0 0 0 .54.29h2.09s3.53-.7 4.71-.91 3-.41 3-.41a21.38 21.38 0 0 1 1.6-2.37l.12-16.7c-1.11-.41-4.06-2-4.06-2l-10.08-.13c-.54 0-.84 1-1.41 1-.8 0-1.88-1-2.72-1l-26.67-.13c-.49 0-2.83.29-2.83.29l-2.37 1.49-.65-.86c-.54-.08-3.57-.9-3.57-.9l-6.78.04-3 1.85s.12 1.52.12 2.3 0 4.42.08 5.12a8 8 0 0 0 .54 2.34 3.25 3.25 0 0 1 .2 2.34c-.24 1.1-.41 2.83-.57 3.44a5.68 5.68 0 0 0 .25 2.54 20.91 20.91 0 0 1 .49 2.18h1.1c.45 0 2.42.28 3.37.2a30.28 30.28 0 0 0 3.77-.82 2.88 2.88 0 0 1 1.64.12c-.15 0 .43.07 1.8.25.62.08.42 0 .87.62a6.91 6.91 0 0 1 .7 2.09s-1.48 1.23-1.93 1.72a2.33 2.33 0 0 0-.61 1.44c-.09.53-.15 2-.17 2.56a2.4 2.4 0 0 1-.21.85c-.13.29-3.56 8.27-3.74 8.67a5.15 5.15 0 0 0-.28 1.1c0 .19-.33 1.74-.36 1.87a.7.7 0 0 1-.29.48l-.57.38a4.87 4.87 0 0 0-1 1.11 6.79 6.79 0 0 1-1.56 1.1h-3.24s-.21 4.35-.08 5.25a12.43 12.43 0 0 0 1.06 2.71s.09 2.21 0 2.87a6.2 6.2 0 0 0 .46 2.46 7.4 7.4 0 0 1 .69 2.26 4.39 4.39 0 0 1-.49 1.76 2.29 2.29 0 0 0 .53 2c.33.37 1.72 3.24 1.72 3.24 1.27-.41 6.52-1.93 6.52-1.93h3.69s3.49-1.15 4.27-1.43a12.63 12.63 0 0 1 3.69-.5c1.35 0 5.87-.2 6.93-.2s8-.21 8.94-.25a12.37 12.37 0 0 0 2.75-.37c.66-.2 3.28-1.47 3.28-1.47s1.27 2.21 1.81 3.32a30.56 30.56 0 0 1 1.14 3 19.57 19.57 0 0 1 2 0 16.41 16.41 0 0 0 3.16.17c1.19-.08 2.42-.21 3.2-.33s4.51-.53 5-.53a18.91 18.91 0 0 0 3.16-.41 4.19 4.19 0 0 0 1.64-1.52c.41-.53 2.71-3.4 2.71-3.4s-1.11-2.59-1.39-3.16a17.65 17.65 0 0 1-.7-3.2c-.08-.57-.86-5.78-1-6.48s-1.27-3.4-1.64-4.35-2.54-6-2.91-7-3-7.55-3.28-8.28-1.64-3.9-1.64-3.9c-.74 0-15.27 2.93-15.27 2.93s-1.95 2.57-2.14 2.89zm37.48-50.2a5.47 5.47 0 0 1 .9.49c.25.21.7.78 1.31.78h9.4a23.27 23.27 0 0 1 2.54.21c.45.08 5.78-.08 5.78-.08.08-.58 1.11-1.07 1.11-1.07H493.25l.8-.59v-.48l-.06-2.26-.18-1 .56-.58.32-.63.22-3.21-.7-.86-.35-1h-.68l-1.26-.25-.88.13-.73.39-1.07-.52h-21.06a8.43 8.43 0 0 1-4.47 1.32s-.13 3.2-.13 3.89a21.64 21.64 0 0 0 .7 3.7c.25.67.46 1.57.46 1.57zm3.77 19.56a33.12 33.12 0 0 0 3.78.17 11.44 11.44 0 0 0 1.39-.33 20.75 20.75 0 0 1 2.13 0 9 9 0 0 0 .86-1.35c.13-.37.5-.21.62-.09a11.05 11.05 0 0 1 .57 1.19c.7.21 2.5 1 2.5 1h5.46c1.46 0 8.82-.08 8.82-.08a2.47 2.47 0 0 1 .59-1.81 9.81 9.81 0 0 0 1.13-1.23s.08-6.81.08-8-.29-4-.29-4l-5.5-.12h-.56c-.31 0-1.14.5-1.44.49a15.17 15.17 0 0 1-3.57-.58 14.66 14.66 0 0 1-1.56-.31l-20.26-.31c-.12.61-1.23.88-1.23.88a2.72 2.72 0 0 0-.16.45c-.08.29-1 .31-1 .31v9.31a32.3 32.3 0 0 0 3 2.42 31.49 31.49 0 0 0 4.64 1.94zm-2.25 13.37a6.72 6.72 0 0 0 1.23.41s8.53 0 8.9-.16a8.63 8.63 0 0 1 2-.08c.45 0 1 .49 1.64.61a15.82 15.82 0 0 0 2.21.33 3.59 3.59 0 0 0 1.6-.41l.9-.74h2.63l.49.29a4.82 4.82 0 0 0 1.56.53 15.83 15.83 0 0 0 2 0s.49-.94.7-1 .49-.45.65-.78a5.58 5.58 0 0 1 .82-.94v-5.25l-1.15-.58a3.38 3.38 0 0 1-1.22-1.31 2.63 2.63 0 0 1-.41-.84h-4.35c-.78 0-1.85.12-2.38.08s-1.56-.37-2.22-.49a9.31 9.31 0 0 0-2.87-.12c-.82.16-3.4.57-4 .61a22.73 22.73 0 0 1-2.92-.12c-.49-.08-4-.37-4-.37a29.49 29.49 0 0 1-3.32 2.07l-.2 1.44a5.22 5.22 0 0 1 .29 1.14c.12.78 0 4.8 0 4.8a5.69 5.69 0 0 0 1.42.83zm-2.34 13.91c.24.28 1.07 1.31 1.07 1.31s2.37.08 3 0 1.72-.25 2.5-.41a3.35 3.35 0 0 1 1.64.08 12 12 0 0 0 2.3.45c.9 0 18.74-.08 18.74-.08a8.26 8.26 0 0 1 1.76-1v-8.41c-.61-.58-2.46-2.28-2.46-2.28-1.51 0-4.51-.41-4.51-.41a12.07 12.07 0 0 1-2.21.74c-.17.58-.62.51-.62.51l-.94-1.12s-5.82-.21-6.4-.21a17.49 17.49 0 0 0-3 .62 3.12 3.12 0 0 1-1.72.16c-.37-.08-1.19-.49-1.93-.65a3.16 3.16 0 0 0-1.85.45 3.61 3.61 0 0 1-1.23.12c-.28 0-1.8-.08-2.66-.16-.37.81-1 .92-1.23 1.33a7.23 7.23 0 0 0-.41 2.46 38.24 38.24 0 0 1-.09 4.92 1.78 1.78 0 0 0 .25 1.53zm81.13 5.01a14.12 14.12 0 0 1 1.76.9c.28.25.39 1 .57 1h2.35c.25 0 4.09 1.51 4.61 1.6a6.19 6.19 0 0 1 1.17 1.05s2.12-.07 2.31 0l2.73.76s-.15 7.26 0 7.6a15.22 15.22 0 0 1 .74 2.09c0 .22-.32 5.26-.35 6.18a44.66 44.66 0 0 1-.26 5.39 16 16 0 0 1-2.51 4.2c-1.16 1.35-2.57 2.81-4.29 3.12a29.15 29.15 0 0 1-2.9.46h-1.17c-.39 0-2.07-1.29-2.45-1.3s-.73.77-1 .77a3.93 3.93 0 0 0-1.66.51c-.59 0-7.7 0-9.33-.25a17.45 17.45 0 0 1-5.35-2.12 10.13 10.13 0 0 1-3.63-4.83 15.8 15.8 0 0 1-.34-4.49V91.5c0-.54.76-1.17.75-1.86 0-.3-.26-.61-.27-.93s-.52-.64-.52-.84v-1.25c-.06-4.91-.13-10.8-.13-11.57a23.56 23.56 0 0 0-.12-3.14 12.06 12.06 0 0 1-.47-2 .92.92 0 0 0-.37-.74 3.62 3.62 0 0 1-.58-.61c-.09-.09-.21-.4-.46-.09s-.62.49-.62.67v5.45a13.34 13.34 0 0 1-.61 3c-.31.8-1.6 4.25-1.78 4.83a6.87 6.87 0 0 0-.25 2 20.08 20.08 0 0 1-.34 2.61c-.09.4-1.6 6.19-1.75 6.65s-1.11 3.47-1.11 3.47a4.75 4.75 0 0 0-1.2.54h-1.11c-.24 0-.37.06-.26.26s.71 1 .76 1.17 0 2.52 0 2.52a24 24 0 0 1-2.55 3.33c-.36.32-1.61 1.21-1.61 1.21s-5.73-4.15-6-4.38a13.49 13.49 0 0 1-1.18-1.24 4.91 4.91 0 0 0-1.44-1.15 9.55 9.55 0 0 0-1.52-.35 11.26 11.26 0 0 1-1.74-1.09c-.33-.2-1.07-.84-1.27-1a.77.77 0 0 0-1 0 1.5 1.5 0 0 0-.37 1.23c0 .25 0 2-.08 2.19a4.32 4.32 0 0 1-1.06 1.83s-2.63.33-3.41.37-5.33.08-6.56 0-6.81 0-6.81 0-2 .69-2.62 1a32.33 32.33 0 0 1-3 1.48c-.53.16-8.9.08-8.9.08a6.4 6.4 0 0 0-1.35-1 2.81 2.81 0 0 0-1-.13s-.17-4.14-.17-5.37v-3a2.33 2.33 0 0 1 .08-.86c.08-.33.58-1.44.58-1.69s-.09-9-.13-9.43-.74-2.79-.74-2.79l-.08-8.94 5.25-2.27h14.44a15.63 15.63 0 0 1 2.25 1c.37.29.74.57.87.7s.41.33.65-.13a10.15 10.15 0 0 1 .78-1.39c.21-.2 1.64 0 1.64 0h6a4 4 0 0 1 2 .06c.61.33.82.49.86.86s-.08 3.28-.08 3.73.2 2.55.12 3-.25 1.27-.29 1.76a15.28 15.28 0 0 0 0 2.71 3.44 3.44 0 0 1 .29 1.11 9.28 9.28 0 0 1-.08 1.19 1.27 1.27 0 0 0 .25.61 5.75 5.75 0 0 0 2.25-1c.78-.7 2.13-3.61 2.75-4.88s2.29-5.91 2.42-6.48a18.64 18.64 0 0 0 .57-2.05 1.31 1.31 0 0 0-.29-.86 3.41 3.41 0 0 1-.24-1.24 1 1 0 0 0-.58-1 19.88 19.88 0 0 0-3.79-.08s.13-4.51.17-6a16 16 0 0 0-.21-3.65 5.4 5.4 0 0 1-.33-1.39c0-.29.17-13.95.17-15.18s-.25-7.79-.25-8.53-.12-2.83 0-3.2a5 5 0 0 1 1-1.64c.45-.49.45-.45.82-.53s3.49 0 3.49 0l-.94-1.78c.38-1.93-1.81-2.38-2-2.91s-4-8.2-4-8.2 3.85-3 4.51-3.61a5.81 5.81 0 0 1 2-1.35c.66-.17 1.64-.25 2-.41a22.12 22.12 0 0 0 2.05-.9 8.86 8.86 0 0 1 1.76-1.85l1.15-1.8 2.67 1.39a13.27 13.27 0 0 1 2.62 1.64 4.7 4.7 0 0 1 .9 1.64c.17.62 1.69 4.92 2.05 5.66s2.55 3.94 2.55 3.94a15.88 15.88 0 0 1-.17 1.84 16.24 16.24 0 0 1-1.18 1.3 6.88 6.88 0 0 0-1.53 1.72s-.74.21-1.2.4-1.14.49-1.42.61a1.39 1.39 0 0 1-.8.06l-.92-.09c-.28 0-.28.12-.09.34s2.7 2.22 2.89 2.4a.81.81 0 0 0 .86.22l2.8-.62a2.35 2.35 0 0 1 1.2-.09 7.23 7.23 0 0 0 .95.49c.16 0 .34.06.86-.37a35.45 35.45 0 0 0 2.25-2.77c.4-.46 1.6-2.09 1.78-2.3a3 3 0 0 0 .43-1.36v-3.02s1.73-3.66 2-4.34a15.44 15.44 0 0 0 1-4 19.4 19.4 0 0 1 1.54-1.32 10.43 10.43 0 0 0 1.84-2.22s1.75.65 2.12.8a13.09 13.09 0 0 0 1.57.43c.37.1 2.86 1.33 3.08 1.33h6.09l4.46 2.46s-1.69 5.72-2 6.67a43.52 43.52 0 0 1-1.69 4.09 17.43 17.43 0 0 1-1.6 2.86c-.31.25-2.49 1.63-2.92 1.88a5.88 5.88 0 0 1-1.39.46c-.27.06-.89.22-1.29.28s-.4.34.12.34 10-.25 10.31-.22a9.08 9.08 0 0 1 2.49.86 20.36 20.36 0 0 1 1.57 3.6v5.63c0 .23-1.54 1.24-1.54 1.48s.77 1.54.77 1.93c0 .61.77 1 .77 1.64v13.25c0 .79-.52 1.56-.52 2.3 0 .95.51 1.85.51 2.69v6a4.58 4.58 0 0 1-1 .43c-.34.06-.83.15-1.41.31a11.76 11.76 0 0 0-1.48.55h-8.65c-.7 0-1.79.29-1.75 1.23v10.56a2.56 2.56 0 0 0 .3 1.39c.26.42 2.3.59 2.69.43a1 1 0 0 0 .52-1c-.07-.27-.07-9.43-.07-9.43zm-61 12.72c0-.21-.39-1.28-.39-1.28h-2a3.45 3.45 0 0 1-.73-.24 10.72 10.72 0 0 0-1.89-.05c-.27 0-2.87 1-2.87 1l.12 4.71a17.31 17.31 0 0 1 2.29.61 6.88 6.88 0 0 0 1.38-.05c.24 0 3.18-.27 3.47-.37s.54-.87.56-1.09.13-3.02.11-3.24zm53-36.44a12.76 12.76 0 0 1 .29-1.51 6.91 6.91 0 0 1-1.22-.22 18 18 0 0 0-2.11-.61c-.74-.16-2.59-.45-2.82-.45s-5.28.23-5.89.23-5.82.13-5.82.13a3.59 3.59 0 0 0-1.76 1.53l-.23 3.2 1.48.64a6.84 6.84 0 0 0 1.63.77c.51.06 14.47 0 14.47 0a17.19 17.19 0 0 1 2-1s-.02-2.39-.02-2.71zm20.27-34.7h.8V7.59h2v-.64h-4.77v.64h2zm4.69-3.17v-.59-.77l1.71 4.53h.79l1.68-4.53V12.32h.76V6.95h-1.13l-1.69 4.55-1.7-4.55h-1.14v5.37h.76zM285.76 114.3v5.61h-.09l-2.48-4.16h-2.39v11.77l2.09 1.22v.05h-8v-.05l2.08-1.22v-11.77h-2.42l-2.5 4.16h-.09v-5.61zm15.88 1.26v12l2.11 1.22v.05h-8.06v-.05l2.09-1.22v-5.47h-4.87v5.46l2.09 1.22v.05h-8v-.05l2.09-1.22v-12l-2.09-1.22h8l-2.09 1.22v5h4.87v-5l-2.09-1.22h8.06zm9.06.19v4.86h1.78l1.88-1.69h.06v4.95h-.06l-1.88-1.78h-1.78v5.28h3.87l2.71-5h.07v6.48h-12.6v-.05l2.09-1.22v-12l-2.09-1.22h12.6v5.45h-.07l-2.77-4zm29.51 5.43v7.61h-12v-.05l2.08-1.22v-12l-2.08-1.22h8l-2.08 1.22v11.78h2.93l3-6.16zm7.55-5.43v4.86h1.78l1.87-1.69h.06v4.95h-.06l-1.87-1.78h-1.78v5.28h3.86l2.72-5h.06v6.48h-12.59v-.05l2.08-1.22v-12l-2.08-1.22h12.59v5.45h-.06l-2.78-4zm23.7 4.93v.05l-2.08 1.22v7.14l-1.6-.73a9.32 9.32 0 0 1-3.63.73c-4.34 0-7.88-2.29-7.88-7.57s3.54-7.58 7.88-7.58a7.16 7.16 0 0 1 3.48.81l1.75-.81v5.45h-.09c-1.66-2.12-3.23-4-5.14-4-2.53 0-3.86 2.29-3.86 6.09s1.27 6.09 3.86 6.09a3.14 3.14 0 0 0 1.76-.52v-5.16l-2.09-1.22v-.05zm6-4.93v4.86h1.78l1.88-1.69h.06v4.95h-.06l-1.87-1.78h-1.78v5.28h3.87l2.72-5h.06v6.48h-12.6v-.05l2.09-1.22v-12l-2.09-1.22h12.6v5.45h-.07l-2.78-4zm24.34-1.45l-2.08 1.22v13.41h-.09l-9-9.62v8.17l2.08 1.22v.05h-6.88v-.05l2.08-1.22v-12l-2.08-1.22h4.8l6.37 6.84v-5.58l-2.08-1.22zm16.07 7.24c0 5.28-4.53 7.25-9.88 7.25h-5.34v-.05l2.08-1.22v-12l-2.08-1.22h5.4c5.18 0 9.83 1.97 9.83 7.24zm-4 0c0-3.8-2.23-5.73-5.25-5.73v11.46c3.01 0 5.24-1.92 5.24-5.73zm29 0c0 5.28-3.5 7.57-7.52 7.57s-7.48-2.29-7.48-7.57 3.77-7.58 7.48-7.58 7.5 2.31 7.5 7.58zm-3.95 0c0-3.8-.82-6.09-3.57-6.09s-3.53 2.29-3.53 6.09 1.06 6.09 3.53 6.09 3.55-2.28 3.55-6.09zm-3.57-2.5l1.91 2.5-1.93 2.55-1.87-2.51zm20.54-4.74v5.45h-.06l-2.78-4h-3.8v5.09h1.8l1.87-1.81h.06v5.18h-.06l-1.87-1.92h-1.78v5.23l2.08 1.22v.05h-8v-.05l2.08-1.22v-12l-2.08-1.22zm24.73 9.35l-1.14 5.14h-12.74l8.49-13h-5.18l-2.89 2.46h-.11l.9-3.91h12.56l-8.48 13h5.25l3.26-3.69zm7.16-7.9v4.86h1.78l1.88-1.69h.06v4.95h-.06l-1.9-1.78h-1.78v5.28h3.87l2.71-5h.06v6.48h-12.59v-.05l2.09-1.22v-12l-2.09-1.22h12.59v5.45h-.06l-2.77-4zm20.35 5.43v7.61h-12v-.05l2.08-1.22v-12l-2.08-1.22h8l-2.08 1.26v11.78h3l3-6.16zm16.46.36c0 5.28-4.53 7.25-9.87 7.25h-5.37v-.05l2.09-1.22v-12l-2.09-1.22h5.35c5.22 0 9.87 1.97 9.87 7.24zm-4 0c0-3.8-2.24-5.73-5.26-5.73v11.46c2.99 0 5.23-1.92 5.23-5.73zm20 7.2v.05h-7.82v-.05l1.51-1-1.09-3.54h-4l-1.27 3.54 1.63 1v.05h-6v-.05l2.11-1.22 4.53-12-1.93-1.22h5.65l4.53 13.22zm-7.85-6l-1.39-4.49-1.63 4.49z"/></svg>